<svg width="196" height="29" viewBox="0 0 196 29" fill="none" xmlns="http://www.w3.org/2000/svg">
<g id="white-logo">
<g id="XMLID_234_" filter="url(#filter0_d_0_1136)">
<path id="XMLID_243_" d="M19.0769 1.84618V12.4616C19.0769 16 17.5385 17.4616 13.8462 17.4616C10.1538 17.4616 8.61539 16 8.61539 12.4616V1.38464H5.07693C4.84616 1.38464 4.61539 1.61541 4.61539 1.84618V12.6154C4.61539 18.5385 8.38462 20.6154 13.8462 20.6154C19.3077 20.6154 23.0769 18.5385 23.0769 12.6154V1.38464H19.5385C19.3077 1.38464 19.0769 1.53849 19.0769 1.84618Z" fill="white"/>
<path id="XMLID_242_" d="M70.5385 4.46157C70.8461 4.46157 71 4.38464 71.0769 4.15387L72.0769 1.61541C72.1538 1.46157 72.0769 1.38464 71.9231 1.38464H57.6154C56.3077 1.38464 55.7692 1.76926 55.7692 2.69234V19.1539C55.7692 19.9231 56.1538 20.3077 57.1538 20.3077H70.4615C70.7692 20.3077 70.9231 20.2308 71 20L72 17.4616C72.0769 17.3077 72 17.2308 71.8461 17.2308H59.6923V13.8462C59.6923 12.6923 60.3077 12.1539 62.0769 12.1539H67.3846C67.6923 12.1539 67.8461 12.077 67.9231 11.8462L68.9231 9.38464C69 9.2308 68.9231 9.15387 68.7692 9.15387H59.7692V4.38464H70.5385V4.46157Z" fill="white"/>
<path id="XMLID_238_" fill-rule="evenodd" clip-rule="evenodd" d="M45.3846 10.3077C46.9231 9.46155 47.5385 8 47.5385 6.15393C47.5385 2 44.1539 1.38464 40.6154 1.38464H32.5385C31.2308 1.38464 30.6923 1.76929 30.6923 2.69238V19.1539C30.6923 19.9231 31.0769 20.3077 32.0769 20.3077H42C45.7693 20.3077 48.3846 18.8462 48.3846 15.0769C48.4615 12.7693 47.5385 10.8462 45.3846 10.3077ZM34.6923 4.38464H40.9231C43 4.38464 43.6154 5.15393 43.6154 6.76929C43.6154 8.38464 43 9.15393 40.9231 9.15393H34.6923V4.38464ZM34.6923 17.2307H41.6923C43.9231 17.2307 44.5385 16.4615 44.5385 14.6923C44.5385 12.9231 43.9231 12.0769 41.6923 12.0769H37.0769C35.3077 12.0769 34.6923 12.6154 34.6923 13.7692V17.2307Z" fill="white"/>
<path id="XMLID_235_" fill-rule="evenodd" clip-rule="evenodd" d="M92.6154 12.6924L96.8462 20C96.9231 20.0769 96.9231 20.3077 96.7692 20.3077H93.1538C92.8462 20.3077 92.7692 20.2308 92.6154 20L88.7692 13.0769H85.3077C83.5385 13.0769 82.9231 13.6154 82.9231 14.7693V20.3077H79.4615C79.2308 20.3077 79 20.0769 79 19.8462V2.69238C79 1.76929 79.5385 1.38464 80.8462 1.38464H88.9231C93.6154 1.38464 96.4615 2.61536 96.4615 7.23083C96.4615 10.7693 94.6923 12.1539 92.6154 12.6924ZM82.8462 10.1539H89.4615C91.9231 10.1539 92.4615 9.23083 92.4615 7.23083C92.4615 5.30774 91.9231 4.38464 89.4615 4.38464H82.8462V10.1539Z" fill="white"/>
</g>
<g id="XMLID_224_">
<path id="XMLID_232_" d="M126.308 18.6154L126.231 20.3077H112.231V1.38464H125.692L125.769 3.15387H114.154V9.69234H124.154V11.2308H114.154V18.6154H126.308Z" fill="#57AD56" stroke="#57AD56" stroke-width="0.25"/>
<g id="XMLID_229_">
<path fill-rule="evenodd" clip-rule="evenodd" d="M137.923 15.3846H149.077L151.231 20.3077H153.385L144.692 1.38464H142.462L133.692 20.3077H135.769L137.923 15.3846ZM138.615 13.7693L142.692 4.61548L143.462 2.69238H143.538L144.308 4.61548L148.308 13.7693H138.615Z" fill="#57AD56"/>
<path d="M149.077 15.3846L149.191 15.3345L149.159 15.2596H149.077V15.3846ZM137.923 15.3846V15.2596H137.841L137.809 15.3345L137.923 15.3846ZM151.231 20.3077L151.116 20.3578L151.149 20.4327H151.231V20.3077ZM153.385 20.3077V20.4327H153.58L153.498 20.2556L153.385 20.3077ZM144.692 1.38464L144.806 1.33247L144.772 1.25964H144.692V1.38464ZM142.462 1.38464V1.25964H142.382L142.348 1.33209L142.462 1.38464ZM133.692 20.3077L133.579 20.2552L133.497 20.4327H133.692V20.3077ZM135.769 20.3077V20.4327H135.851L135.884 20.3578L135.769 20.3077ZM142.692 4.61548L142.807 4.66637L142.808 4.6619L142.692 4.61548ZM138.615 13.7693L138.501 13.7184L138.423 13.8943H138.615V13.7693ZM143.462 2.69238V2.56738H143.377L143.345 2.64596L143.462 2.69238ZM143.538 2.69238L143.655 2.64596L143.623 2.56738H143.538V2.69238ZM144.308 4.61548L144.192 4.66193L144.193 4.66553L144.308 4.61548ZM148.308 13.7693V13.8943H148.499L148.422 13.7192L148.308 13.7693ZM149.077 15.2596H137.923V15.5096H149.077V15.2596ZM151.345 20.2576L149.191 15.3345L148.962 15.4347L151.116 20.3578L151.345 20.2576ZM153.385 20.1827H151.231V20.4327H153.385V20.1827ZM144.579 1.43682L153.271 20.3599L153.498 20.2556L144.806 1.33247L144.579 1.43682ZM142.462 1.50964H144.692V1.25964H142.462V1.50964ZM133.806 20.3603L142.575 1.4372L142.348 1.33209L133.579 20.2552L133.806 20.3603ZM135.769 20.1827H133.692V20.4327H135.769V20.1827ZM137.809 15.3345L135.655 20.2576L135.884 20.3578L138.038 15.4347L137.809 15.3345ZM142.578 4.56462L138.501 13.7184L138.73 13.8201L142.807 4.66634L142.578 4.56462ZM143.345 2.64596L142.576 4.56906L142.808 4.6619L143.578 2.73881L143.345 2.64596ZM143.538 2.56738H143.462V2.81738H143.538V2.56738ZM144.424 4.56905L143.655 2.64596L143.422 2.73881L144.192 4.6619L144.424 4.56905ZM148.422 13.7192L144.422 4.56543L144.193 4.66553L148.193 13.8193L148.422 13.7192ZM138.615 13.8943H148.308V13.6443H138.615V13.8943Z" fill="#57AD56"/>
</g>
<path id="XMLID_227_" d="M167.231 3.15387V20.3077H165.308V3.15387H158.231L158.308 1.38464H174.385V3.15387H167.231Z" fill="#57AD56" stroke="#57AD56" stroke-width="0.25"/>
<path id="XMLID_225_" d="M188.077 20.6923C185.462 20.6923 183.385 20.0769 181.692 19.0769L182 17.3846C183.769 18.3846 185.769 19 188.154 19C191.692 19 193.538 17.3846 193.538 15.0769C193.538 10.0769 182 12.6923 182 6.23077C182 3.46154 184.077 1 188.923 1C191.154 1 193.154 1.38462 194.769 2.15385L194.462 3.76923C192.692 3.07692 191 2.69231 189 2.69231C185.231 2.69231 183.846 4.38462 183.846 6.07692C183.846 10.8462 195.385 8.15385 195.385 14.9231C195.308 18.3077 192.846 20.6923 188.077 20.6923Z" fill="#57AD56" stroke="#57AD56" stroke-width="0.25"/>
</g>
</g>
<defs>
<filter id="filter0_d_0_1136" x="0.615387" y="1.38464" width="100.281" height="27.2307" filterUnits="userSpaceOnUse" color-interpolation-filters="sRGB">
<feFlood flood-opacity="0" result="BackgroundImageFix"/>
<feColorMatrix in="SourceAlpha" type="matrix" values="0 0 0 0 0 0 0 0 0 0 0 0 0 0 0 0 0 0 127 0" result="hardAlpha"/>
<feOffset dy="4"/>
<feGaussianBlur stdDeviation="2"/>
<feComposite in2="hardAlpha" operator="out"/>
<feColorMatrix type="matrix" values="0 0 0 0 0 0 0 0 0 0 0 0 0 0 0 0 0 0 0.25 0"/>
<feBlend mode="normal" in2="BackgroundImageFix" result="effect1_dropShadow_0_1136"/>
<feBlend mode="normal" in="SourceGraphic" in2="effect1_dropShadow_0_1136" result="shape"/>
</filter>
</defs>
</svg>
